<mxfile host="Electron" modified="2024-05-20T11:59:14.965Z" agent="Mozilla/5.0 (Windows NT 10.0; Win64; x64) AppleWebKit/537.36 (KHTML, like Gecko) draw.io/23.1.5 Chrome/120.0.6099.109 Electron/28.1.0 Safari/537.36" etag="ICoWZEMlKU-aLtBCw0b6" version="23.1.5" type="device">
  <diagram name="Page-1" id="kCQ-5cCD135w8WMYoH_2">
    <mxGraphModel dx="1036" dy="1775" grid="1" gridSize="10" guides="1" tooltips="1" connect="1" arrows="1" fold="1" page="1" pageScale="1" pageWidth="827" pageHeight="1169" math="0" shadow="0">
      <root>
        <mxCell id="0" />
        <mxCell id="1" parent="0" />
        <mxCell id="3ycqGOcJy0l5AKDW314_-19" value="cbi:affectedBy" style="edgeStyle=orthogonalEdgeStyle;rounded=0;orthogonalLoop=1;jettySize=auto;html=1;" parent="1" source="3ycqGOcJy0l5AKDW314_-10" target="3ycqGOcJy0l5AKDW314_-14" edge="1">
          <mxGeometry x="-0.1429" relative="1" as="geometry">
            <mxPoint as="offset" />
          </mxGeometry>
        </mxCell>
        <mxCell id="3ycqGOcJy0l5AKDW314_-10" value="cbi:CognitiveProcess" style="rounded=1;arcSize=10;whiteSpace=wrap;html=1;align=center;fillColor=#f0a30a;strokeColor=#BD7000;fontColor=#000000;" parent="1" vertex="1">
          <mxGeometry x="150" y="140" width="150" height="50" as="geometry" />
        </mxCell>
        <mxCell id="3ycqGOcJy0l5AKDW314_-20" value="crm:P69_is_associated_with" style="edgeStyle=orthogonalEdgeStyle;rounded=0;orthogonalLoop=1;jettySize=auto;html=1;exitX=0.75;exitY=1;exitDx=0;exitDy=0;entryX=0;entryY=0.25;entryDx=0;entryDy=0;" parent="1" source="3ycqGOcJy0l5AKDW314_-14" target="3ycqGOcJy0l5AKDW314_-16" edge="1">
          <mxGeometry x="0.2903" relative="1" as="geometry">
            <mxPoint as="offset" />
          </mxGeometry>
        </mxCell>
        <mxCell id="3ycqGOcJy0l5AKDW314_-21" value="rdfs:subClassOf" style="edgeStyle=orthogonalEdgeStyle;rounded=0;orthogonalLoop=1;jettySize=auto;html=1;" parent="1" source="3ycqGOcJy0l5AKDW314_-14" target="3ycqGOcJy0l5AKDW314_-17" edge="1">
          <mxGeometry relative="1" as="geometry">
            <mxPoint as="offset" />
          </mxGeometry>
        </mxCell>
        <mxCell id="3ycqGOcJy0l5AKDW314_-23" value="cbi:hasTrigger" style="edgeStyle=orthogonalEdgeStyle;rounded=0;orthogonalLoop=1;jettySize=auto;html=1;entryX=0.5;entryY=1;entryDx=0;entryDy=0;exitX=1;exitY=0;exitDx=0;exitDy=0;" parent="1" source="3ycqGOcJy0l5AKDW314_-14" target="3ycqGOcJy0l5AKDW314_-18" edge="1">
          <mxGeometry relative="1" as="geometry">
            <mxPoint x="560" y="125" as="sourcePoint" />
            <mxPoint x="805" y="30" as="targetPoint" />
          </mxGeometry>
        </mxCell>
        <mxCell id="3ycqGOcJy0l5AKDW314_-14" value="cbi:AttentionalBias" style="rounded=1;arcSize=10;whiteSpace=wrap;html=1;align=center;fillColor=#f0a30a;strokeColor=#BD7000;fontColor=#000000;" parent="1" vertex="1">
          <mxGeometry x="440" y="140" width="150" height="50" as="geometry" />
        </mxCell>
        <mxCell id="3ycqGOcJy0l5AKDW314_-22" value="cbi:affects" style="edgeStyle=orthogonalEdgeStyle;rounded=0;orthogonalLoop=1;jettySize=auto;html=1;" parent="1" source="3ycqGOcJy0l5AKDW314_-15" target="3ycqGOcJy0l5AKDW314_-14" edge="1">
          <mxGeometry relative="1" as="geometry">
            <Array as="points">
              <mxPoint x="225" y="220" />
              <mxPoint x="515" y="220" />
            </Array>
          </mxGeometry>
        </mxCell>
        <mxCell id="3ycqGOcJy0l5AKDW314_-15" value="rsctx:EmotionalState" style="rounded=1;arcSize=10;whiteSpace=wrap;html=1;align=center;fillColor=#f0a30a;strokeColor=#BD7000;fontColor=#000000;" parent="1" vertex="1">
          <mxGeometry x="150" y="280" width="150" height="50" as="geometry" />
        </mxCell>
        <mxCell id="3ycqGOcJy0l5AKDW314_-16" value="tb:MentalDisorder" style="rounded=1;arcSize=10;whiteSpace=wrap;html=1;align=center;fillColor=#f0a30a;strokeColor=#BD7000;fontColor=#000000;" parent="1" vertex="1">
          <mxGeometry x="780" y="260" width="150" height="50" as="geometry" />
        </mxCell>
        <mxCell id="3ycqGOcJy0l5AKDW314_-17" value="cbi:CognitiveBias" style="rounded=1;arcSize=10;whiteSpace=wrap;html=1;align=center;fillColor=#f0a30a;strokeColor=#BD7000;fontColor=#000000;" parent="1" vertex="1">
          <mxGeometry x="800" y="140" width="150" height="50" as="geometry" />
        </mxCell>
        <mxCell id="3ycqGOcJy0l5AKDW314_-18" value="emotion:Stimulus" style="rounded=1;arcSize=10;whiteSpace=wrap;html=1;align=center;fillColor=#f0a30a;strokeColor=#BD7000;fontColor=#000000;" parent="1" vertex="1">
          <mxGeometry x="677" y="15" width="150" height="50" as="geometry" />
        </mxCell>
        <mxCell id="Fa74rsgTPT6HSomy7qcu-1" value="&lt;p style=&quot;margin: 4px 0px 0px; text-decoration: underline; font-size: 11px;&quot;&gt;&lt;b&gt;&lt;font style=&quot;font-size: 11px;&quot;&gt;Prefixes&lt;/font&gt;&lt;/b&gt;&lt;/p&gt;&lt;hr style=&quot;font-size: 11px;&quot;&gt;&lt;div style=&quot;text-align: left; font-size: 11px;&quot;&gt;&lt;span style=&quot;background-color: initial;&quot;&gt;&lt;font style=&quot;font-size: 11px;&quot;&gt;&amp;nbsp; emotion: http://ns.inria.fr/emoca/&lt;/font&gt;&lt;/span&gt;&lt;/div&gt;&lt;p style=&quot;text-align: left; margin: 0px 0px 0px 8px; font-size: 11px;&quot;&gt;&lt;font style=&quot;font-size: 11px;&quot;&gt;&lt;span style=&quot;background-color: initial;&quot;&gt;fs:&amp;nbsp;&lt;/span&gt;&lt;a style=&quot;background: transparent; margin: 0px 8px 8px 0px; padding: 0px; vertical-align: baseline; display: inline-block;&quot; class=&quot;iri&quot; href=&quot;https://w3id.org/framester/data/framestercore/Preference&quot;&gt;&lt;font style=&quot;font-size: 11px;&quot; color=&quot;#000000&quot;&gt;https://w3id.org/framester/data/framestercore&lt;/font&gt;&lt;/a&gt;&lt;br&gt;&lt;/font&gt;&lt;/p&gt;&lt;p style=&quot;text-align: left; margin: 0px 0px 0px 8px; font-size: 11px;&quot;&gt;&lt;span style=&quot;background-color: initial;&quot;&gt;&lt;font style=&quot;font-size: 11px;&quot;&gt;cbi:&amp;nbsp;&lt;/font&gt;&lt;/span&gt;&lt;span style=&quot;background-color: initial; font-size: 12px;&quot;&gt;https://github.com/ranacoskun/cognitive_bias_ontology&lt;/span&gt;&lt;/p&gt;&lt;p style=&quot;text-align: left; margin: 0px 0px 0px 8px; font-size: 11px;&quot;&gt;&lt;font style=&quot;font-size: 11px;&quot;&gt;rdfs: https://www.w3.org/2000/01/rdf-schema#&lt;/font&gt;&lt;/p&gt;&lt;div style=&quot;text-align: left; font-size: 11px;&quot;&gt;&lt;span style=&quot;background-color: initial;&quot;&gt;&lt;font style=&quot;font-size: 11px;&quot;&gt;&amp;nbsp; &amp;nbsp;rsctx: http://softeng.polito.it/rsctx/&lt;/font&gt;&lt;/span&gt;&lt;/div&gt;&lt;p style=&quot;text-align: left; margin: 0px 0px 0px 8px; font-size: 11px;&quot;&gt;&lt;font style=&quot;font-size: 11px;&quot;&gt;&lt;span style=&quot;background-color: initial;&quot;&gt;classification:&amp;nbsp;http://www.ontologydesignpatterns.org/cp/owl/classification.owl&amp;nbsp;&lt;/span&gt;&lt;br&gt;&lt;/font&gt;&lt;/p&gt;&lt;p style=&quot;text-align: left; margin: 0px 0px 0px 8px; font-size: 11px;&quot;&gt;&lt;font style=&quot;font-size: 11px;&quot;&gt;crm: &lt;a style=&quot;font-family: Arial; text-decoration-skip-ink: none;&quot; class=&quot;waffle-rich-text-link&quot; href=&quot;https://www.cidoc-crm.org/html/cidoc_crm_v7.1.3.html&quot;&gt;https://www.cidoc-crm.org/html/cidoc_crm_v7.1.3.html&lt;/a&gt;&lt;br&gt;&lt;/font&gt;&lt;/p&gt;&lt;p style=&quot;text-align: left; margin: 0px 0px 0px 8px; font-size: 11px;&quot;&gt;&lt;font style=&quot;font-size: 11px;&quot;&gt;tb: &lt;a style=&quot;font-family: Arial; text-decoration-skip-ink: none;&quot; class=&quot;waffle-rich-text-link&quot; href=&quot;https://tobiasgrubenmann.github.io/Ontologies/Timebank/0.2/index.html#&quot;&gt;https://tobiasgrubenmann.github.io/Ontologies/Timebank/0.2/index.html#&lt;/a&gt;&lt;/font&gt;&lt;br&gt;&lt;/p&gt;" style="verticalAlign=top;align=center;overflow=fill;html=1;whiteSpace=wrap;" parent="1" vertex="1">
          <mxGeometry x="130" y="-40" width="444" height="160" as="geometry" />
        </mxCell>
        <mxCell id="Fa74rsgTPT6HSomy7qcu-2" value="fs:People" style="rounded=1;arcSize=10;whiteSpace=wrap;html=1;align=center;fillColor=#f0a30a;strokeColor=#BD7000;fontColor=#000000;" parent="1" vertex="1">
          <mxGeometry x="720" y="360" width="150" height="50" as="geometry" />
        </mxCell>
        <mxCell id="Fa74rsgTPT6HSomy7qcu-5" value="classification:isClassifiedBy" style="edgeStyle=orthogonalEdgeStyle;rounded=0;orthogonalLoop=1;jettySize=auto;html=1;exitX=1;exitY=0.5;exitDx=0;exitDy=0;entryX=0;entryY=0.5;entryDx=0;entryDy=0;" parent="1" source="Fa74rsgTPT6HSomy7qcu-3" target="Fa74rsgTPT6HSomy7qcu-2" edge="1">
          <mxGeometry relative="1" as="geometry" />
        </mxCell>
        <mxCell id="Fa74rsgTPT6HSomy7qcu-3" value="cbi:BiasedAgent" style="rounded=1;arcSize=10;whiteSpace=wrap;html=1;align=center;fillColor=#f0a30a;strokeColor=#BD7000;fontColor=#000000;" parent="1" vertex="1">
          <mxGeometry x="350" y="360" width="150" height="50" as="geometry" />
        </mxCell>
        <mxCell id="Fa74rsgTPT6HSomy7qcu-4" value="cbi:affectedBy" style="edgeStyle=orthogonalEdgeStyle;rounded=0;orthogonalLoop=1;jettySize=auto;html=1;exitX=0.5;exitY=0;exitDx=0;exitDy=0;entryX=0.657;entryY=1.048;entryDx=0;entryDy=0;entryPerimeter=0;" parent="1" source="Fa74rsgTPT6HSomy7qcu-3" target="3ycqGOcJy0l5AKDW314_-14" edge="1">
          <mxGeometry x="0.0669" relative="1" as="geometry">
            <mxPoint as="offset" />
          </mxGeometry>
        </mxCell>
      </root>
    </mxGraphModel>
  </diagram>
</mxfile>
